<svg width="26" height="26" viewBox="0 0 26 26" fill="none" xmlns="http://www.w3.org/2000/svg">
<path d="M13.008 4.14409C7.97607 4.14409 3.86183 8.52624 4.20906 13.5468C4.53277 18.2273 8.31691 21.7362 13.008 21.7362C17.6992 21.7362 21.4833 18.2273 21.807 13.5468C22.1543 8.52624 18.04 4.14409 13.008 4.14409Z" fill="white" stroke="#999999" stroke-width="0.75"/>
<path d="M13 8.2L13.0003 13H17.8" stroke="#999999" stroke-width="0.75" stroke-linecap="round" stroke-linejoin="round"/>
<path d="M20.8 12.9392H21.4853M5.20002 12.9392H4.51477M13.0001 5.2V4.51471M13.0001 20.8V21.4853" stroke="#999999" stroke-width="0.75" stroke-linecap="round"/>
<path d="M18.4724 7.44159L18.957 6.95701M7.44155 18.4725L6.95701 18.957M7.48457 7.48457L7 7M18.5154 18.5154L19 19" stroke="#999999" stroke-width="0.75" stroke-linecap="round"/>
</svg>
